<?xml version="1.0" standalone="no"?>
<!DOCTYPE svg PUBLIC "-//W3C//DTD SVG 20010904//EN"
 "http://www.w3.org/TR/2001/REC-SVG-20010904/DTD/svg10.dtd">
<svg version="1.0" xmlns="http://www.w3.org/2000/svg"
 width="400.000000pt" height="400.000000pt" viewBox="0 0 400.000000 400.000000"
 preserveAspectRatio="xMidYMid meet">
<metadata>
Created by potrace 1.14, written by Peter Selinger 2001-2017
</metadata>
<g transform="translate(0.000000,400.000000) scale(0.100000,-0.100000)"
fill="#000000" stroke="none">
<path d="M303 3788 c4 -178 9 -232 30 -328 35 -159 53 -292 72 -525 21 -266
33 -385 55 -535 10 -69 26 -182 36 -252 13 -98 22 -132 37 -145 18 -17 20 -17
34 2 12 16 14 39 8 120 -3 55 -10 129 -15 165 -5 36 -14 115 -20 175 -6 61
-15 146 -21 191 -5 45 -9 141 -8 215 1 113 -4 156 -30 279 -16 80 -35 179 -40
220 -6 41 -15 107 -20 145 -6 39 -15 158 -22 265 -6 107 -13 201 -15 208 -2 7
-20 12 -45 12 l-41 0 5 -212z"/>
<path d="M1022 3713 c5 -276 6 -294 36 -438 44 -207 43 -228 -17 -334 -116
-204 -131 -276 -131 -636 l0 -262 -31 -39 c-17 -22 -32 -41 -34 -43 -2 -2 -43
-7 -90 -12 -195 -20 -428 -80 -625 -162 l-125 -52 -3 -868 -2 -867 215 0 c147
0 215 3 215 11 0 6 9 61 19 122 11 62 24 150 30 197 7 47 16 110 21 140 4 30
14 100 21 155 11 92 40 175 60 175 4 0 16 -19 27 -42 19 -41 19 -49 7 -160 -8
-65 -23 -184 -35 -265 -12 -82 -26 -177 -31 -213 -5 -36 -12 -77 -15 -93 l-6
-27 244 0 243 1 44 55 c66 83 192 178 317 240 102 51 115 55 170 52 56 -3 59
-4 62 -31 4 -35 43 -61 77 -53 14 4 25 3 25 -1 0 -20 63 -73 86 -73 13 0 24
-4 24 -9 0 -5 9 -13 20 -16 11 -3 20 -12 20 -20 0 -23 49 -53 106 -66 30 -7
57 -16 60 -21 8 -13 57 -9 112 8 l51 17 31 -27 c17 -14 37 -26 44 -26 19 0 56
30 56 46 0 20 43 35 79 28 41 -9 69 10 82 56 10 32 16 39 30 35 12 -4 29 5 50
25 18 17 38 29 45 26 7 -3 15 1 18 9 3 8 13 11 24 8 27 -7 59 12 68 39 4 13
16 35 28 49 11 15 28 40 37 56 17 31 71 52 115 45 23 -3 233 -205 369 -355
l88 -97 324 0 323 0 0 980 0 979 -81 63 c-58 45 -88 76 -105 110 -33 65 -30
72 14 44 42 -26 158 -86 167 -86 4 0 5 12 3 26 -2 22 -23 39 -113 95 -60 38
-111 73 -113 78 -2 5 35 37 82 70 47 34 95 74 106 88 20 25 20 27 3 37 -10 6
-65 11 -123 12 -115 2 -208 14 -255 33 -44 18 -130 85 -160 126 -47 61 -36 75
128 155 144 71 242 100 339 100 58 0 108 39 108 85 l0 33 -62 -14 c-35 -8 -73
-17 -86 -21 -19 -4 -25 2 -43 42 -11 25 -18 53 -15 60 13 35 -41 46 -244 50
-91 2 -228 8 -305 14 -220 17 -465 25 -465 16 0 -5 7 -17 17 -27 15 -17 15
-18 -6 -18 -32 0 -136 55 -159 85 -11 14 -23 25 -26 25 -4 0 -36 20 -72 44
-234 161 -587 220 -836 141 -49 -16 -90 -26 -93 -24 -2 3 -11 22 -20 42 -15
36 -14 37 5 37 11 0 20 3 20 8 0 9 -45 77 -77 115 -20 25 -23 40 -23 106 0 99
12 135 53 154 50 24 260 85 382 111 l110 24 -519 1 -518 1 4 -287z m1158 -393
c99 -28 219 -85 327 -155 100 -65 260 -220 292 -283 11 -22 25 -44 31 -47 23
-14 81 -150 111 -260 20 -74 18 -429 -4 -565 -23 -147 -44 -244 -54 -247 -27
-10 -38 -31 -72 -129 -20 -60 -40 -107 -45 -106 -4 2 -21 -9 -38 -25 -17 -16
-38 -27 -50 -25 -43 7 -66 -7 -83 -53 -16 -42 -20 -45 -64 -51 -25 -3 -53 -12
-61 -19 -8 -7 -31 -15 -50 -19 -19 -3 -44 -16 -57 -27 l-22 -22 -31 27 c-17
14 -38 26 -45 26 -29 0 -66 -21 -76 -42 -10 -22 -14 -23 -126 -20 -102 3 -119
1 -142 -16 -43 -31 -91 -33 -124 -6 -33 28 -97 33 -117 9 -16 -19 -30 -10 -30
20 0 29 -43 65 -79 65 -15 0 -36 -7 -48 -15 -22 -15 -23 -14 -47 33 -14 27
-52 85 -84 128 -32 44 -64 93 -71 111 -13 31 -63 82 -148 150 -53 42 -123 177
-157 303 -23 85 -26 113 -26 260 1 370 77 569 284 733 99 79 215 157 234 157
7 0 12 4 12 9 0 9 111 61 185 86 148 50 331 55 475 15z m-1021 -160 c0 -32 -2
-41 -9 -30 -5 8 -9 40 -9 70 1 42 3 49 9 30 4 -14 8 -45 9 -70z"/>
<path d="M1352 2578 c-8 -8 -12 -58 -12 -158 0 -100 4 -150 12 -158 9 -9 89
-12 299 -12 284 0 288 0 303 22 8 12 13 25 10 30 -3 5 -3 25 0 44 6 28 11 34
31 34 23 0 25 -4 25 -48 0 -84 -7 -82 321 -82 208 0 288 3 297 12 8 8 12 58
12 158 0 100 -4 150 -12 158 -9 9 -90 12 -301 12 -331 0 -316 4 -317 -87 0
-49 -2 -53 -24 -53 -28 0 -36 16 -36 74 0 23 -5 47 -12 54 -17 17 -579 17
-596 0z m1246 -155 l3 -113 -261 0 -260 0 0 115 0 115 258 -2 257 -3 3 -112z
m-688 -3 l0 -110 -260 0 -260 0 0 110 0 110 260 0 260 0 0 -110z"/>
<path d="M2073 1785 c9 -53 146 -202 225 -244 22 -11 90 -13 120 -3 16 6 15
55 -2 95 -17 40 -71 93 -80 78 -15 -23 -62 -11 -97 25 -41 43 -49 47 -118 68
l-54 16 6 -35z"/>
<path d="M1883 1800 c-61 -13 -98 -35 -137 -82 -106 -131 -127 -161 -135 -197
-5 -22 -6 -42 -3 -46 3 -3 22 -5 42 -5 31 0 44 7 76 43 78 85 211 253 218 275
8 24 6 25 -61 12z"/>
<path d="M2242 3671 c-9 -6 -3 -10 20 -14 18 -3 41 -8 51 -12 13 -5 17 -2 17
14 0 18 -6 21 -37 21 -21 0 -44 -4 -51 -9z"/>
<path d="M2945 3481 c44 -20 50 -19 42 4 -4 10 -19 15 -44 14 l-38 0 40 -18z"/>
</g>
</svg>
